HIERARCHY
ROOT Pelvis
{
	OFFSET 0.000000 0.000000 0.000000
	CHANNELS 6 Xposition Yposition Zposition Zrotation Yrotation Xrotation 
	JOINT Left_hip
	{
		OFFSET 0.069463 -0.088608 -0.009542
		CHANNELS 3 Zrotation Yrotation Xrotation
		JOINT Left_knee
		{
			OFFSET 0.030639 -0.359740 -0.005288
			CHANNELS 3 Zrotation Yrotation Xrotation
			JOINT Left_ankle
			{
				OFFSET -0.011068 -0.376034 -0.042462
				CHANNELS 3 Zrotation Yrotation Xrotation
				JOINT Left_foot
				{
					OFFSET 0.023192 -0.053321 0.111332
					CHANNELS 3 Zrotation Yrotation Xrotation
					End Site
					{
						OFFSET 0.000000 0.000000 0.000000
					}
				}
			}
		}
	}
	JOINT Right_hip
	{
		OFFSET -0.067438 -0.088025 -0.006263
		CHANNELS 3 Zrotation Yrotation Xrotation
		JOINT Right_knee
		{
			OFFSET -0.035962 -0.366229 -0.008063
			CHANNELS 3 Zrotation Yrotation Xrotation
			JOINT Right_ankle
			{
				OFFSET 0.013608 -0.375719 -0.040481
				CHANNELS 3 Zrotation Yrotation Xrotation
				JOINT Right_foot
				{
					OFFSET -0.021034 -0.045527 0.114617
					CHANNELS 3 Zrotation Yrotation Xrotation
					End Site
					{
						OFFSET 0.000000 0.000000 0.000000
					}
				}
			}
		}
	}
	JOINT Spine1
	{
		OFFSET -0.002610 0.101823 -0.019986
		CHANNELS 3 Zrotation Yrotation Xrotation
		JOINT Spine2
		{
			OFFSET 0.004114 0.128714 -0.000938
			CHANNELS 3 Zrotation Yrotation Xrotation
			JOINT Spine3
			{
				OFFSET 0.002191 0.048470 0.027684
				CHANNELS 3 Zrotation Yrotation Xrotation
				JOINT Neck
				{
					OFFSET -0.002856 0.198873 -0.044022
					CHANNELS 3 Zrotation Yrotation Xrotation
					JOINT Head
					{
						OFFSET 0.002981 0.062960 0.049860
						CHANNELS 3 Zrotation Yrotation Xrotation
						End Site
						{
							OFFSET 0.000000 0.000000 0.000000
						}
					}
				}
				JOINT Left_collar
				{
					OFFSET 0.073708 0.112550 -0.033440
					CHANNELS 3 Zrotation Yrotation Xrotation
					JOINT Left_shoulder
					{
						OFFSET 0.083291 0.030786 -0.008013
						CHANNELS 3 Zrotation Yrotation Xrotation
						JOINT Left_elbow
						{
							OFFSET 0.245601 -0.011792 -0.027873
							CHANNELS 3 Zrotation Yrotation Xrotation
							JOINT Left_wrist
							{
								OFFSET 0.232258 0.008622 -0.000487
								CHANNELS 3 Zrotation Yrotation Xrotation
								JOINT Left_palm
								{
									OFFSET 0.077300 -0.009457 -0.012851
									CHANNELS 3 Zrotation Yrotation Xrotation
									End Site
									{
										OFFSET 0.000000 0.000000 0.000000
									}
								}
							}
						}
					}
				}
				JOINT Right_collar
				{
					OFFSET -0.075339 0.110574 -0.037874
					CHANNELS 3 Zrotation Yrotation Xrotation
					JOINT Right_shoulder
					{
						OFFSET -0.086522 0.031207 -0.009986
						CHANNELS 3 Zrotation Yrotation Xrotation
						JOINT Right_elbow
						{
							OFFSET -0.237313 -0.011478 -0.019859
							CHANNELS 3 Zrotation Yrotation Xrotation
							JOINT Right_wrist
							{
								OFFSET -0.237599 0.007976 -0.003742
								CHANNELS 3 Zrotation Yrotation Xrotation
								JOINT Right_palm
								{
									OFFSET -0.076920 -0.006943 -0.009920
									CHANNELS 3 Zrotation Yrotation Xrotation
									End Site
									{
										OFFSET 0.000000 0.000000 0.000000
									}
								}
							}
						}
					}
				}
			}
		}
	}
}
MOTION
Frames: 10
Frame Time: 0.100000
0.000000 0.000000 0.000000 176.011510 28.340492 -24.118676 1.606312 4.678829 18.176094 0.459044 -11.129523 -3.333257 5.384275 5.746610 -5.845786 -9.282286 9.554349 -1.782058 -2.767816 -4.814715 20.937890 -1.544783 2.297889 -2.936968 -5.869449 -8.827189 -8.457753 11.318590 -0.919493 10.187025 0.862572 0.780056 4.538814 0.246280 -4.142501 7.732159 -0.595675 -2.877425 -0.912532 -0.237589 -9.354444 9.326790 -3.359156 -11.013823 3.789500 -32.374148 -1.862004 7.059670 -49.551542 -8.114547 7.956938 0.691265 -16.631628 15.125821 -13.326255 3.867361 -1.763936 -8.455862 -3.648283 -8.969897 33.329991 6.902900 5.328749 50.885520 4.730952 12.120892 -5.262010 13.375151 -0.312198 8.532694 -4.138070 0.285684 11.534292 8.717139 -4.179123 
-0.003615 -0.001077 0.004270 175.840067 29.088262 -24.006100 1.712366 4.644814 18.625712 0.443444 -11.474084 -3.914497 5.131973 5.447485 -5.875103 -9.103200 9.421939 -1.728322 -2.871563 -5.195774 21.641603 -1.625525 2.122517 -3.664872 -5.548831 -9.119274 -8.212410 10.862901 -0.641606 9.971448 0.741234 0.854193 3.910844 0.161383 -4.165536 7.693305 -0.612972 -2.862815 -0.978048 -0.189072 -9.423846 8.841581 -3.150901 -11.091979 3.456858 -32.242875 -1.662702 7.034670 -49.627712 -7.946758 7.935041 0.615113 -16.544202 15.408790 -13.246373 3.732472 -1.809506 -8.428686 -3.693169 -8.926349 33.264380 6.751327 5.309841 51.144199 4.389138 12.184784 -5.087500 13.190959 0.094372 8.551022 -4.109292 0.386965 11.522610 8.725978 -4.148843 
-0.004694 -0.000868 0.006201 175.971744 29.083234 -23.891460 1.541086 4.678236 18.564079 0.428212 -11.494289 -3.631706 5.443872 5.515985 -6.035640 -9.474346 9.428377 -1.675835 -2.871640 -4.975926 21.277093 -1.707041 1.995306 -2.808085 -5.891229 -9.147623 -8.629796 11.301756 -0.913963 10.036516 0.764513 0.926567 4.177735 0.080819 -3.978912 7.418638 -0.672095 -2.703427 -1.117686 -0.194224 -9.305602 8.737347 -3.171176 -10.984481 3.371978 -32.214885 -1.979764 7.007067 -49.489756 -8.007605 8.091140 0.439353 -16.596250 15.911940 -13.297587 3.763503 -1.448257 -8.392957 -3.611630 -8.949385 33.268592 7.110166 5.502875 51.215349 4.438732 12.283410 -4.899036 12.898129 0.463161 8.660497 -4.124067 0.565167 11.369136 8.686504 -4.157447 
-0.005237 -0.000901 0.008312 175.983732 29.126616 -23.904073 1.513917 4.671526 18.533409 0.423593 -11.559717 -3.278978 5.606986 5.586710 -6.158781 -9.593681 9.403508 -1.807587 -2.882929 -5.004530 21.050750 -1.664107 1.917511 -2.055159 -6.124326 -9.171637 -8.934558 11.576357 -1.017329 10.118762 0.780844 0.860698 4.172189 0.098908 -3.988194 7.363176 -0.713120 -2.723602 -1.074913 -0.318060 -9.188104 9.598432 -3.404894 -10.804042 4.011956 -31.980509 -2.052856 7.207913 -49.419043 -7.939139 8.266175 0.190419 -17.377647 16.612126 -13.314565 3.724980 -1.462111 -8.386930 -3.544276 -8.954039 33.113704 7.198074 5.643525 51.152355 4.509743 12.385450 -4.737339 13.374794 0.994835 8.654374 -4.075855 0.626181 11.315723 8.671711 -4.133282 
-0.003365 -0.000923 0.008891 175.828901 28.850202 -22.820776 1.646444 4.224621 16.511266 0.132609 -10.865749 -2.034416 4.766048 6.196450 -6.472447 -8.067047 8.325164 -2.089339 -2.458201 -4.965603 19.330139 -1.595288 1.970434 -1.523235 -5.126728 -8.533788 -8.996879 10.168537 -2.096989 8.708148 0.838949 0.827044 5.187219 0.265291 -3.912735 6.773871 -0.101967 -2.510306 -0.770457 -0.676553 -9.741165 4.457656 -1.342526 -10.878449 -1.628859 -28.772176 -0.729995 7.162794 -50.113157 -4.985672 9.778645 -1.933343 -28.951412 22.736211 -11.098100 1.212822 -3.225908 -8.500464 -3.051155 -8.595472 29.798368 6.640540 5.297385 51.840822 2.108817 13.582613 -3.680544 23.010233 6.604196 7.725059 -2.561825 -0.350114 10.907082 8.400148 -4.536882 
-0.004546 -0.002695 0.011526 175.303815 27.765402 -25.154062 2.913260 4.753761 19.867383 0.603495 -11.705536 -3.203586 -3.997008 7.966648 -7.271682 1.705732 8.586373 -2.812821 -1.872063 -4.975756 23.185590 -2.228672 1.742786 -4.319797 2.203245 -7.183382 -6.211827 5.058077 -4.326052 1.341878 1.254686 0.525135 8.722370 0.291273 -3.436592 9.554435 1.345527 -2.331454 -1.420414 0.057249 -11.093393 -2.897194 2.282410 -10.439492 -14.778083 -26.137843 4.802860 6.200287 -47.517695 2.631011 11.581612 -5.425148 -58.730564 31.310854 -9.758450 -6.953530 -2.838211 -3.811561 -0.944615 -7.725512 23.923157 2.777513 3.063053 49.059552 -5.601772 16.449789 0.999645 54.161162 17.473976 5.314815 3.166837 -3.138249 7.064544 6.561394 -3.319371 
-0.005958 -0.003115 0.012677 175.328845 26.789222 -23.493928 2.503201 3.616337 17.757882 0.406156 -10.228114 -2.345347 -4.384631 8.263552 -7.288011 4.076722 9.693070 -3.842101 -1.200201 -4.165616 20.754028 -2.477671 1.547420 -3.317187 3.595621 -6.780325 -5.930808 1.679141 -5.748070 -0.695520 1.215909 0.620820 7.642028 0.497640 -2.668928 10.358202 1.904872 -1.982698 -1.530807 0.702659 -12.758168 -6.476005 4.910729 -9.301146 -21.754927 -22.575842 9.013605 6.360996 -48.939614 6.056700 10.450061 0.280453 -85.702029 27.780206 -13.399359 -8.510406 -13.609980 -4.101618 -0.649713 -5.497336 18.981955 -0.870741 2.748942 50.866953 -10.208809 15.989911 -20.143033 80.439846 1.104843 9.446626 4.627302 -9.913151 7.038988 6.307317 -2.704244 
-0.010781 -0.004071 0.013947 175.274780 27.062359 -23.028559 1.821543 2.227712 17.207665 0.530802 -8.380660 -2.170917 -4.400460 7.194460 -6.694986 5.613825 10.694175 -5.341298 -1.076317 -3.858756 20.026049 -2.817430 -0.036672 -2.622206 4.279089 -5.549136 -5.156512 -0.460990 -7.707820 -2.536954 0.820824 0.807456 5.692803 0.765582 -2.847686 11.235811 2.269140 -1.934935 -1.157879 0.114514 -13.851796 -6.755719 6.048997 -8.692791 -23.153870 -18.330300 9.932791 6.729973 -55.970984 3.011114 10.228973 163.982595 -72.488597 -136.588907 -14.845272 -12.217313 -31.804773 -3.248556 -0.078648 0.915034 14.318756 -2.809143 1.892819 58.100082 -9.827608 15.639586 -149.296537 71.461099 -124.297264 12.456013 6.958090 -18.737475 6.121911 6.180828 -0.671962 
-0.017018 -0.003996 0.012849 175.116801 27.068342 -23.432531 1.522885 1.826792 17.662994 0.704582 -7.013418 -2.306006 -3.736083 5.354397 -6.315574 5.307624 12.395226 -6.168171 -1.121158 -3.623089 20.285506 -3.127283 -1.638505 -2.297626 4.076843 -3.710189 -4.392047 -0.329122 -9.314101 -3.400941 0.646467 0.938665 4.989970 0.952479 -3.386280 11.626483 2.487140 -1.935065 -1.491970 -0.019079 -13.787725 -5.860123 5.852182 -8.678844 -21.777084 -16.986253 6.785231 6.617631 -62.662242 -2.293085 11.175481 162.262424 -60.209455 -132.673120 -10.449647 -11.705235 -38.808912 -3.889081 -0.312930 3.890713 12.818347 -0.402288 0.777819 65.009431 -5.163085 15.989018 -155.099028 55.555356 -126.234038 8.194151 7.517113 -21.197094 7.132978 6.851580 -0.149012 
-0.023921 -0.003317 0.008946 174.980531 26.596750 -24.050948 1.309737 1.938105 18.110421 0.797506 -6.014602 -1.847434 -2.957781 4.042730 -6.508182 4.625204 13.975759 -6.299501 -1.307324 -3.459995 20.502871 -3.408457 -2.573984 -1.707823 3.729848 -1.965738 -3.885903 0.575918 -10.394835 -4.123318 0.670195 1.186614 5.140582 1.144941 -3.759195 12.202688 2.650187 -1.704791 -1.846869 0.049783 -13.254231 -5.685949 5.419364 -9.108110 -21.458020 -16.149782 3.189830 6.196204 -66.884115 -6.344123 12.249382 161.965552 -53.977399 -130.130400 -6.087912 -9.681134 -40.688643 -4.724245 -0.714234 5.121875 12.302578 3.159558 -0.357304 70.458144 0.245185 17.147095 -156.890005 46.637044 -124.929584 3.054148 6.942013 -20.440900 8.541733 7.712188 -0.485129 
